<?xml version="1.0" encoding="UTF-8"?>
<svg version="1.1" xmlns="http://www.w3.org/2000/svg" width="64" height="64">
<path d="M0 0 C21.12 0 42.24 0 64 0 C64 21.12 64 42.24 64 64 C42.88 64 21.76 64 0 64 C0 42.88 0 21.76 0 0 Z " fill="#75CBFD" transform="translate(0,0)"/>
<path d="M0 0 C8.58 0 17.16 0 26 0 C26 1.98 26 3.96 26 6 C23.03 6 20.06 6 17 6 C17 13.26 17 20.52 17 28 C14.69 28 12.38 28 10 28 C9 27 9 27 8.88647461 24.95874023 C8.89171143 24.08419189 8.89694824 23.20964355 8.90234375 22.30859375 C8.90556641 21.36435547 8.90878906 20.42011719 8.91210938 19.44726562 C8.92048828 18.45404297 8.92886719 17.46082031 8.9375 16.4375 C8.94201172 15.44041016 8.94652344 14.44332031 8.95117188 13.41601562 C8.96299993 10.94395151 8.97948151 8.47200482 9 6 C6.03 6 3.06 6 0 6 C0 4.02 0 2.04 0 0 Z " fill="#F2F6FD" transform="translate(21,9)"/>
<path d="M0 0 C4.62 0 9.24 0 14 0 C14 1.65 14 3.3 14 5 C14.66 5 15.32 5 16 5 C16.33 3.35 16.66 1.7 17 0 C17.99 0.33 18.98 0.66 20 1 C19.01 1.495 19.01 1.495 18 2 C18.99 2.33 19.98 2.66 21 3 C21 2.01 21 1.02 21 0 C26.61 0 32.22 0 38 0 C37.67 0.66 37.34 1.32 37 2 C37.66 2.33 38.32 2.66 39 3 C39 3.66 39 4.32 39 5 C33.39 5 27.78 5 22 5 C22 5.99 22 6.98 22 8 C28.6 8.33 35.2 8.66 42 9 C41.67 10.32 41.34 11.64 41 13 C38.58325776 13.02705308 36.1668206 13.04686438 33.75 13.0625 C32.72712891 13.07506836 32.72712891 13.07506836 31.68359375 13.08789062 C28.95354566 13.10114329 26.42250531 13.10710362 23.765625 12.43359375 C21.99139045 11.84779909 21.99139045 11.84779909 20.20117188 12.48046875 C17.68650636 13.07399229 15.59342174 13.02037071 13.015625 12.87890625 C12.08105469 12.83056641 11.14648438 12.78222656 10.18359375 12.73242188 C9.21550781 12.67634766 8.24742188 12.62027344 7.25 12.5625 C6.26644531 12.51029297 5.28289063 12.45808594 4.26953125 12.40429688 C1.84601151 12.27488563 -0.57706864 12.13993095 -3 12 C-3 10.68 -3 9.36 -3 8 C-2.24074219 8.09539063 -1.48148438 8.19078125 -0.69921875 8.2890625 C0.79158203 8.45535156 0.79158203 8.45535156 2.3125 8.625 C3.29863281 8.74101563 4.28476562 8.85703125 5.30078125 8.9765625 C8.22657416 9.25476995 8.22657416 9.25476995 11 7 C12.2981424 4.7763932 12.2981424 4.7763932 12 1 C11.67 2.32 11.34 3.64 11 5 C10.34 4.67 9.68 4.34 9 4 C8.34 4.185625 7.68 4.37125 7 4.5625 C6.34 4.706875 5.68 4.85125 5 5 C4.34 4.34 3.68 3.68 3 3 C2.34 3.66 1.68 4.32 1 5 C0.67 3.35 0.34 1.7 0 0 Z " fill="#6EBCFD" transform="translate(13,40)"/>
<path d="M0 0 C1.06476562 0.08378906 2.12953125 0.16757812 3.2265625 0.25390625 C11.46548785 0.8498364 19.30455616 0.94802853 27.55078125 0.19140625 C33.40043737 -0.1332066 39.17936467 0.42501323 45 1 C44.67 2.32 44.34 3.64 44 5 C41.58325776 5.02705308 39.1668206 5.04686438 36.75 5.0625 C35.72712891 5.07506836 35.72712891 5.07506836 34.68359375 5.08789062 C31.95354566 5.10114329 29.42250531 5.10710362 26.765625 4.43359375 C24.99139045 3.84779909 24.99139045 3.84779909 23.20117188 4.48046875 C20.68650636 5.07399229 18.59342174 5.02037071 16.015625 4.87890625 C15.08105469 4.83056641 14.14648438 4.78222656 13.18359375 4.73242188 C12.21550781 4.67634766 11.24742188 4.62027344 10.25 4.5625 C9.26644531 4.51029297 8.28289063 4.45808594 7.26953125 4.40429688 C4.84601151 4.27488563 2.42293136 4.13993095 0 4 C0 2.68 0 1.36 0 0 Z " fill="#518CEA" transform="translate(10,48)"/>
<path d="M0 0 C0.99 0.33 1.98 0.66 3 1 C2.01 1.495 2.01 1.495 1 2 C1.99 2.33 2.98 2.66 4 3 C4 2.01 4 1.02 4 0 C9.61 0 15.22 0 21 0 C20.67 0.66 20.34 1.32 20 2 C20.66 2.33 21.32 2.66 22 3 C22 3.66 22 4.32 22 5 C14.74 5 7.48 5 0 5 C-0.33 3.68 -0.66 2.36 -1 1 C-0.67 0.67 -0.34 0.34 0 0 Z " fill="#3D6FDD" transform="translate(30,40)"/>
<path d="M0 0 C2.43757413 -0.02698422 4.87484915 -0.04683099 7.3125 -0.0625 C8.00279297 -0.07087891 8.69308594 -0.07925781 9.40429688 -0.08789062 C12.5483025 -0.10307906 14.99420019 -0.00193327 18 1 C19.6875 3.0625 19.6875 3.0625 21 5 C18.79173622 5.02722517 16.58337362 5.04649729 14.375 5.0625 C13.14523438 5.07410156 11.91546875 5.08570313 10.6484375 5.09765625 C7.32276209 5.00863924 4.25952412 4.63686087 1 4 C0.67 2.68 0.34 1.36 0 0 Z " fill="#6BB1FE" transform="translate(34,44)"/>
<path d="M0 0 C9.24 0 18.48 0 28 0 C28 0.66 28 1.32 28 2 C19.42 2 10.84 2 2 2 C2 3.65 2 5.3 2 7 C1.34 7 0.68 7 0 7 C0 4.69 0 2.38 0 0 Z " fill="#0011B5" transform="translate(18,6)"/>
<path d="M0 0 C4.62 0 9.24 0 14 0 C14 1.65 14 3.3 14 5 C13.34 5 12.68 5 12 5 C12 3.68 12 2.36 12 1 C11.67 2.32 11.34 3.64 11 5 C10.34 4.67 9.68 4.34 9 4 C8.34 4.185625 7.68 4.37125 7 4.5625 C6.34 4.706875 5.68 4.85125 5 5 C4.34 4.34 3.68 3.68 3 3 C2.34 3.66 1.68 4.32 1 5 C0.67 3.35 0.34 1.7 0 0 Z " fill="#3F75DB" transform="translate(13,40)"/>
<path d="M0 0 C2.64 0 5.28 0 8 0 C7.67 1.65 7.34 3.3 7 5 C6.67 4.34 6.34 3.68 6 3 C5.34 3 4.68 3 4 3 C4 3.99 4 4.98 4 6 C2.68 5.67 1.36 5.34 0 5 C0.66 4.34 1.32 3.68 2 3 C1.34 2.67 0.68 2.34 0 2 C0 1.34 0 0.68 0 0 Z " fill="#6BBFFC" transform="translate(30,37)"/>
<path d="M0 0 C-0.33 0.33 -0.66 0.66 -1 1 C-0.34 1.33 0.32 1.66 1 2 C1 2.66 1 3.32 1 4 C-0.98 4 -2.96 4 -5 4 C-5.66 2.68 -6.32 1.36 -7 0 C-2.25 -1.125 -2.25 -1.125 0 0 Z " fill="#335DD6" transform="translate(51,41)"/>
<path d="M0 0 C2.97 0.495 2.97 0.495 6 1 C6.33 2.32 6.66 3.64 7 5 C6.01 5 5.02 5 4 5 C3.67 4.34 3.34 3.68 3 3 C2.34 3.66 1.68 4.32 1 5 C0.67 3.35 0.34 1.7 0 0 Z " fill="#3362D3" transform="translate(13,40)"/>
</svg>
